<?xml version="1.0" standalone="no"?><!DOCTYPE svg PUBLIC "-//W3C//DTD SVG 1.1//EN" "http://www.w3.org/Graphics/SVG/1.1/DTD/svg11.dtd"><svg t="1490758698158" class="icon" style="" viewBox="0 0 1024 1024" version="1.1" xmlns="http://www.w3.org/2000/svg" p-id="5896" xmlns:xlink="http://www.w3.org/1999/xlink" width="200" height="200"><defs><style type="text/css"></style></defs><path d="M661.708674 418.751223c0-11.155061-6.282077-16.752546-18.84623-16.752546L521.410324 401.998677l0 29.315676 140.29835 0L661.708674 418.751223z" p-id="5897" fill="#ff2d2d"></path><path d="M661.708674 481.570967 661.708674 464.819444 521.410324 464.819444l0 31.410384 123.546827 0C656.112212 496.228805 661.708674 491.355821 661.708674 481.570967z" p-id="5898" fill="#ff2d2d"></path><path d="M653.332912 529.732873 521.410324 529.732873l0 33.504068 131.922588-6.282077C646.327358 548.579103 646.327358 539.517727 653.332912 529.732873z" p-id="5899" fill="#ff2d2d"></path><path d="M351.795275 481.570967c0 9.784854 5.558599 14.657838 16.752546 14.657838l115.170043 0L483.717863 464.819444 351.795275 464.819444 351.795275 481.570967z" p-id="5900" fill="#ff2d2d"></path><path d="M351.795275 418.751223l0 12.564154 131.922588 0L483.717863 401.998677 368.547821 401.998677C357.353874 401.998677 351.795275 407.595138 351.795275 418.751223z" p-id="5901" fill="#ff2d2d"></path><path d="M512 65.071018c-246.831688 0-446.928982 200.096271-446.928982 446.927959 0 246.831688 200.096271 446.928982 446.928982 446.928982 246.830665 0 446.927959-200.096271 446.927959-446.928982C958.927959 265.168312 758.830665 65.071018 512 65.071018zM288.975531 301.486472l194.742333 0 0-20.939915c12.564154-19.530822 25.128307-19.530822 37.692461 0l0 20.939915 205.211778 0c9.745968 0 15.343453 5.596462 16.752546 16.752546-1.409093 12.564154-7.005554 18.84623-16.752546 18.84623L521.410324 337.085248l0 33.504068 146.580426 0c22.310122-1.3743 32.780591 8.375761 31.410384 29.315676l0 102.605889c0 15.378246-6.282077 24.442692-18.84623 27.221991 26.498514 27.942399 47.438429 50.975998 62.819744 69.101821 8.375761 11.189853 8.375761 20.939915 0 29.315676-9.784854 8.375761-19.569708 8.375761-29.315676 0-8.375761-9.750061-19.569708-21.62553-33.504068-35.597753l-379.01522 16.752546c-12.564154-1.3743-19.569708-7.656377-20.939915-18.84623 0-12.564154 6.282077-18.84623 18.84623-18.84623l184.272887-6.282077 0-35.597753L345.513198 529.732873c-19.569708 0-29.315676-9.750061-29.315676-29.315676l0-100.512205c0-20.939915 9.745968-30.689976 29.315676-29.315676l138.204665 0 0-33.504068L288.975531 337.085248c-11.193947 0-17.476023-6.282077-18.84623-18.84623C271.499507 307.082934 277.781584 301.486472 288.975531 301.486472zM565.383838 703.536314c-12.564154 4.188392-21.663392 0.719384-27.221991-10.470469-2.817162-8.375761-7.005554-18.84623-12.564154-31.410384-4.188392-6.967692-7.005554-12.564154-8.375761-16.752546-5.596462-11.155061-2.817162-19.530822 8.375761-25.128307 11.155061-4.188392 20.216437-1.3743 27.221991 8.375761 9.745968 12.564154 17.437138 27.942399 23.033599 46.068222C580.042699 686.783769 576.539922 696.568622 565.383838 703.536314zM368.547821 663.749146c-12.564154 30.724769-32.133861 58.632375-58.632375 83.760682-12.564154 12.564154-24.442692 13.938454-35.597753 4.188392-9.784854-11.189853-8.375761-23.033599 4.188392-35.597753 18.122753-15.343453 35.597753-39.786145 52.350298-73.290213 8.375761-13.938454 18.84623-18.125823 31.410384-12.564154C373.420805 637.247562 375.514489 648.406716 368.547821 663.749146zM659.614989 701.441607c-4.188392 39.066761-29.315676 57.911968-75.383898 56.538691L479.529471 757.980297c-44.698015 0-67.008136-20.255323-67.008136-60.72606l0-58.632375c13.934361-20.939915 27.907607-20.939915 41.879829 0l0 50.256614c0 20.939915 16.752546 31.410384 50.256614 31.410384l64.914452 0c27.907607 1.3743 43.250036-6.282077 46.068222-23.033599 2.7793-15.343453 11.155061-22.314215 25.128307-20.939915C656.112212 679.127392 662.393265 687.503153 659.614989 701.441607zM747.562017 741.227752c-11.193947 8.375761-20.939915 6.967692-29.315676-4.188392-25.127284-33.504068-47.476291-62.819744-67.008136-87.948051-8.375761-11.155061-8.375761-20.939915 0-29.315676 11.155061-6.967692 21.62553-5.562692 31.410384 4.188392 19.530822 22.349007 42.564421 51.664683 69.101821 87.948051C758.717078 723.067136 757.309008 732.85199 747.562017 741.227752z" p-id="5902" fill="#ff2d2d"></path></svg>