<?xml version="1.0" standalone="no"?><!DOCTYPE svg PUBLIC "-//W3C//DTD SVG 1.1//EN" "http://www.w3.org/Graphics/SVG/1.1/DTD/svg11.dtd"><svg t="1490663487465" class="icon" style="" viewBox="0 0 1024 1024" version="1.1" xmlns="http://www.w3.org/2000/svg" p-id="999" xmlns:xlink="http://www.w3.org/1999/xlink" width="200" height="200"><defs><style type="text/css"></style></defs><path d="M512.384 53.28c-189.248 0-343.008 153.6-343.008 342.272 0 62.112 17.024 121.76 47.488 173.376 33.952 57.504 278.592 388.8 278.592 388.8 3.232 6.272 9.92 10.272 16.96 10.272 7.072 0 13.536-3.968 16.96-10.272 0 0 244.672-331.424 278.528-388.832 30.496-51.68 47.52-111.36 47.52-173.344C855.424 206.88 701.408 53.28 512.384 53.28L512.384 53.28zM512.384 509.92c-63.072 0-114.336-51.488-114.336-114.336 0-63.104 51.296-114.336 114.336-114.336 63.072 0 114.336 51.264 114.336 114.336C626.72 458.432 575.488 509.92 512.384 509.92L512.384 509.92zM512.384 509.92" p-id="1000" fill="#8a8a8a"></path></svg>