<?xml version="1.0" standalone="no"?><!DOCTYPE svg PUBLIC "-//W3C//DTD SVG 1.1//EN" "http://www.w3.org/Graphics/SVG/1.1/DTD/svg11.dtd"><svg t="1490757538811" class="icon" style="" viewBox="0 0 1024 1024" version="1.1" xmlns="http://www.w3.org/2000/svg" p-id="2374" xmlns:xlink="http://www.w3.org/1999/xlink" width="200" height="200"><defs><style type="text/css"></style></defs><path d="M529.92 69.76C434.243338 71.521382 373.153874 110.198303 346.88 170.24 321.857597 227.421819 327.462277 299.684823 345.6 374.4 335.825019 385.813934 328.113418 401.193779 330.88 424.32 333.907988 449.488712 340.845425 467.403223 350.72 480 356.143493 486.918636 363.307295 487.558103 369.92 490.88 373.550203 512.298578 379.517788 533.7873 388.48 551.68 393.631232 561.964237 399.404032 571.498619 405.12 579.2 407.650877 582.609961 411.397591 584.648131 414.08 587.52 414.215168 612.784312 414.337843 633.828454 412.16 660.48 405.500744 676.533268 389.986693 689.509171 364.8 702.08 338.804572 715.054469 304.92162 727.058842 270.72 741.76 236.51838 756.461158 201.276912 774.385132 173.44 802.56 145.603088 830.734868 125.942839 869.362422 122.88 920.32L121.6 942.08 143.36 942.08 921.6 942.08 943.36 942.08 942.08 920.32C939.023913 869.381448 919.249592 830.740644 891.52 802.56 863.790408 774.379356 828.952392 756.464005 794.88 741.76 760.807608 727.055995 727.33653 715.050762 701.44 702.08 676.594053 689.635451 660.865475 676.98516 654.08 661.12 651.835331 634.123633 652.020756 613.012296 652.16 587.52 654.822851 584.62251 658.634875 582.62272 661.12 579.2 666.732667 571.469783 672.117146 561.960591 677.12 551.68 685.84663 533.74722 692.133663 512.239432 695.68 490.88 702.118871 487.556915 708.949197 486.746808 714.24 480 724.119491 467.401687 731.062886 449.49291 734.08 424.32 736.77953 401.911992 729.303982 387.124961 720 375.68 729.999176 343.203615 742.771425 290.687345 738.56 236.8 736.261386 207.38814 728.698388 178.01702 711.04 153.6 694.858711 131.225432 668.624466 114.870354 635.52 108.16 614.022513 80.267768 575.249551 69.76 530.56 69.76L529.92 69.76zM530.56 110.72C530.817843 110.72 530.943386 110.719066 531.2 110.72 572.433818 110.870118 599.11682 122.965838 606.72 136.32L611.84 144.64 621.44 145.92C649.926697 149.87869 666.244628 161.357181 677.76 177.28 689.275372 193.202819 695.679734 215.42914 697.6 240 701.440553 289.141699 687.308595 346.327429 678.4 373.12L673.28 389.12 687.36 397.44C686.476902 396.904038 695.169249 402.829763 693.12 419.84 690.709914 439.94837 685.923389 450.342953 682.24 455.04 678.556611 459.737047 676.636549 459.50718 676.48 459.52L659.2 460.8 657.28 477.44C655.381709 495.161242 648.257352 516.791583 640 533.76 635.871334 542.244209 631.596298 549.706527 627.84 554.88 624.083702 560.053473 620.117053 562.949878 622.08 561.92L611.2 567.68 611.2 579.84C611.2 609.487974 610.010317 633.825219 613.12 668.16L613.12 670.72 614.4 673.28C626.091704 704.711434 653.139395 724.303872 682.88 739.2 712.620605 754.096128 746.809672 765.040005 778.88 778.88 810.950328 792.719995 840.352297 809.278874 862.08 831.36 879.351276 848.9122 890.226401 872.109732 896 901.12L168.96 901.12C174.750982 872.122757 185.533792 848.916787 202.88 831.36 224.701972 809.273098 254.51522 792.722842 286.72 778.88 318.92478 765.037158 352.881828 754.092401 382.72 739.2 412.558172 724.307599 440.136991 704.741868 451.84 673.28L452.48 670.72 453.12 668.16C456.228966 633.833574 455.04 609.497231 455.04 579.84L455.04 567.68 444.16 561.92C446.028186 562.89751 441.623552 560.085606 437.76 554.88 433.896448 549.674496 429.209088 542.243123 424.96 533.76 416.461844 516.793754 409.551012 494.976532 407.68 477.44L405.76 460.8 388.48 459.52C388.324352 459.507261 386.403185 459.738522 382.72 455.04 379.036815 450.341417 374.259692 439.952568 371.84 419.84 369.804575 402.825605 378.483241 396.90238 377.6 397.44L391.04 389.12 387.2 374.4C367.919002 300.196475 364.582994 232.714793 384.64 186.88 404.640625 141.174082 445.400351 112.447011 530.56 110.72z" p-id="2375" fill="#8a8a8a"></path></svg>