<?xml version="1.0" standalone="no"?><!DOCTYPE svg PUBLIC "-//W3C//DTD SVG 1.1//EN" "http://www.w3.org/Graphics/SVG/1.1/DTD/svg11.dtd"><svg t="1490759086798" class="icon" style="" viewBox="0 0 1024 1024" version="1.1" xmlns="http://www.w3.org/2000/svg" p-id="9448" xmlns:xlink="http://www.w3.org/1999/xlink" width="200" height="200"><defs><style type="text/css"></style></defs><path d="M513.737133 170.620959c14.027033 0 27.490201 2.803859 40.394621 8.41567 12.903397 5.609765 23.985233 13.32447 33.242441 23.141046 9.258231 9.818623 16.691831 21.179368 22.301826 34.08326s8.414992 26.64894 8.414992 41.235147c0 21.318538-5.468772 40.393989-16.409387 57.224306-10.940615 16.830317-25.1058 29.734208-42.498624 38.71065-6.171813 17.392112-9.258231 35.344996-9.258231 53.858652 0 20.757766 3.787411 41.37534 11.361211 61.851697 7.574823 20.47738 17.954643 38.992059 31.138437 55.540967 13.185841 16.550954 28.613837 30.015617 46.286036 40.393989 17.673222 10.379395 36.608233 15.569604 56.806055 15.569604 17.392825 0 33.804259-4.207835 49.232255-12.623505s29.455029-19.21462 42.077005-32.398898c12.624022-13.1853 23.285263-28.05087 31.979629-44.601824 8.696412-16.550954 15.008424-32.960693 18.936034-49.229215-15.148622-7.294127-27.490201-18.23327-37.028829-32.819476s-14.306407-30.856775-14.306407-48.808636c0-12.343119 2.244202-23.843034 6.731584-34.502815 4.489428-10.659781 10.661241-19.916609 18.514414-27.770484 7.85522-7.853875 17.113451-14.165628 27.772645-18.934235 10.661241-4.76963 21.882253-7.15291 33.663037-7.15291 11.78283 0 23.003843 2.38328 33.663037 7.15291 10.661241 4.768607 19.917425 11.08036 27.772645 18.934235 7.85522 7.853875 14.027033 17.110703 18.514414 27.770484 4.489428 10.659781 6.733631 22.160719 6.733631 34.502815 0 17.951861-4.628604 34.082236-13.886834 48.388057-9.256184 14.305821-21.178189 25.104771-35.764994 32.398898-2.806021 28.05087-7.014028 56.662511-12.624022 85.836971-5.609994 29.173436-12.624022 58.205657-21.039014 87.097684-8.417038 28.893051-18.234017 56.80475-29.455029 83.733053-11.221012 26.929326-23.564637 51.613518-37.030875 74.055646-46.566433 17.391089-94.815251 30.715559-144.749523 39.97341-49.932225 9.256828-101.267461 13.884218-154.005706 13.884218-52.740292 0-103.935329-4.627391-153.58818-13.884218-49.652851-9.257851-98.042891-22.581298-145.170119-39.97341-13.465215-22.442128-25.80884-47.12632-37.028829-74.055646-11.221012-26.928303-21.040037-54.840002-29.455029-83.733053-8.416015-28.892027-15.569218-57.924247-21.45961-87.097684-5.890392-29.17446-9.958201-57.786101-12.202403-85.836971-14.586804-7.294127-26.229436-18.093077-34.924825-32.398898s-13.044619-30.436196-13.044619-48.388057c0-12.343119 2.244202-23.843034 6.732607-34.502815s10.518995-19.916609 18.093818-27.770484c7.573799-7.853875 16.551633-14.165628 26.930429-18.934235 10.378797-4.76963 21.45961-7.15291 33.241417-7.15291s23.002819 2.38328 33.663037 7.15291c10.660217 4.768607 19.917425 11.08036 27.771621 18.934235 7.854197 7.853875 14.026009 17.110703 18.514414 27.770484s6.732607 22.160719 6.732607 34.502815c0 18.513656-4.769826 35.06461-14.306407 49.650817s-21.880206 25.245987-37.028829 31.978319c3.92761 16.830317 10.239621 33.521464 18.93501 50.071396 8.696412 16.550954 19.35663 31.55774 31.979629 45.022403s26.650032 24.40483 42.078028 32.819476c15.42902 8.41567 31.83943 12.623505 49.232255 12.623505 20.197822 0 39.132832-5.190209 56.806055-15.568581 17.673222-10.379395 33.241417-23.843034 46.707655-40.393989 13.464191-16.550954 23.985233-35.20378 31.559033-55.962569 7.573799-20.75879 11.361211-41.515532 11.361211-62.273299 0-19.635199-3.92761-38.71065-11.781807-57.224306-15.71044-9.537214-28.473638-22.581298-38.29164-39.131229-9.819025-16.550954-14.728026-34.643008-14.728026-54.279231 0-14.586207 2.804997-28.332279 8.416015-41.235147 5.611018-12.902868 13.184817-24.264637 22.722422-34.08326 9.537605-9.8176 20.618418-17.531282 33.241417-23.141046C485.543893 173.424818 499.150329 170.620959 513.737133 170.620959z" p-id="9449" fill="#f4ea2a"></path></svg>