<?xml version="1.0" standalone="no"?><!DOCTYPE svg PUBLIC "-//W3C//DTD SVG 1.1//EN" "http://www.w3.org/Graphics/SVG/1.1/DTD/svg11.dtd"><svg t="1490758729437" class="icon" style="" viewBox="0 0 1024 1024" version="1.1" xmlns="http://www.w3.org/2000/svg" p-id="7165" xmlns:xlink="http://www.w3.org/1999/xlink" width="200" height="200"><defs><style type="text/css"></style></defs><path d="M958.367699 388.635321l0 292.188712-2.966565 0c-7.875365 128.758526-228.616838 228.312916-462.294948 228.312916-233.810117 0-417.59284-99.688443-425.213401-228.312916l-2.916423 0L64.976362 388.635321c-2.24411-10.252505 0.083911-20.572548 0.083911-31.229259 0-135.975904 185.838545-242.546082 428.046936-242.546082 242.209414 0 465.178625 106.570177 465.178625 242.546082C958.284811 368.063797 960.611809 378.38384 958.367699 388.635321zM493.105163 185.815009c-209.950709 0-367.365902 93.351108-367.365902 171.592077 0 78.241992 157.415192 165.453263 367.365902 165.453263 209.968106 0 405.263024-87.211271 405.263024-165.453263C898.368186 279.166117 703.074292 185.815009 493.105163 185.815009zM902.146233 486.906485c-76.723406 64.886823-256.975722 108.951411-409.040047 108.951411-152.063301 0-294.41952-44.065612-371.159298-108.951411l0 48.092321c20.216437 83.772962 190.868095 156.787906 371.159298 156.787906 180.357717 0 388.923894-73.083505 409.040047-156.855444L902.146233 486.906485zM902.146233 641.60173c-74.816986 65.966411-237.33336 111.99984-409.040047 111.99984-167.007665 0-296.324916-46.033429-371.159298-111.864764l0 37.761022c20.216437 83.7044 171.405835 160.879084 371.159298 160.879084 195.242729 0 388.923894-77.174684 409.040047-160.943552L902.146233 641.60173z" p-id="7166" fill="#1afa29"></path></svg>